<svg id="Layer_1" data-name="Layer 1" xmlns="http://www.w3.org/2000/svg" viewBox="0 0 512 512"><defs><style>.cls-1{fill:#40c168;}.cls-2{fill:#3aad5a;}.cls-3{fill:#1f8c3e;}.cls-4{opacity:0.12;}.cls-5{fill:#17292d;}</style></defs><title>dollar-bills-flat</title><path class="cls-1" d="M0,128A64.19,64.19,0,0,1,64,64H448a64.19,64.19,0,0,1,64,64V384a64.19,64.19,0,0,1-64,64H64A64.19,64.19,0,0,1,0,384Z"/><path class="cls-2" d="M12.8,179.2A94.88,94.88,0,0,1,0,178.37V152.45a71.66,71.66,0,0,0,12.8,1.15A76.86,76.86,0,0,0,89.6,76.8,71.58,71.58,0,0,0,88.45,64h25.92a94.8,94.8,0,0,1,.83,12.8A102.54,102.54,0,0,1,12.8,179.2Zm486.4-25.6a76.86,76.86,0,0,1-76.8-76.8A71.58,71.58,0,0,1,423.55,64H397.63a94.8,94.8,0,0,0-.83,12.8A102.54,102.54,0,0,0,499.2,179.2a94.88,94.88,0,0,0,12.8-.83V152.45A71.66,71.66,0,0,1,499.2,153.6Zm0,76.8a94.88,94.88,0,0,1,12.8.83v25.92A71.66,71.66,0,0,0,499.2,256a76.86,76.86,0,0,0-76.8,76.8,71.59,71.59,0,0,0,1.15,12.8H448a38.94,38.94,0,0,0,3.93-.2,63.69,63.69,0,0,0,34.9-13.15q2.45-1.88,4.7-4l.91-.88q2.09-2,4-4.23c.26-.3.52-.6.78-.9a64.78,64.78,0,0,0,4-5.27l.16-.22a64.16,64.16,0,0,0,3.67-6.24l0-.06a63.77,63.77,0,0,0,2.7-6.1c.22-.57.41-1.15.61-1.72q.84-2.37,1.49-4.81c.19-.72.37-1.44.54-2.17.37-1.61.65-3.24.89-4.89.1-.7.23-1.38.31-2.09a63.48,63.48,0,0,0,.43-7.09V384a64.19,64.19,0,0,1-64,64H64A64.19,64.19,0,0,1,0,384V281.6a63.48,63.48,0,0,0,.43,7.09c.08.7.21,1.39.31,2.09.24,1.65.53,3.29.89,4.89.17.73.35,1.45.54,2.17q.65,2.45,1.49,4.81c.2.57.39,1.16.61,1.72A63.6,63.6,0,0,0,7,310.49l0,0a64.14,64.14,0,0,0,3.67,6.24l.16.22a64.78,64.78,0,0,0,4,5.27c.25.31.52.6.78.9q1.9,2.2,4,4.23l.91.88q2.25,2.1,4.7,4a63.69,63.69,0,0,0,34.9,13.15,38.94,38.94,0,0,0,3.93.2H88.45a71.59,71.59,0,0,0,1.15-12.8A76.86,76.86,0,0,0,12.8,256,71.66,71.66,0,0,0,0,257.15V231.23a94.88,94.88,0,0,1,12.8-.83A102.54,102.54,0,0,1,115.2,332.8a94.82,94.82,0,0,1-.83,12.8H397.63a94.82,94.82,0,0,1-.83-12.8A102.54,102.54,0,0,1,499.2,230.4ZM483.42,398.81A63.51,63.51,0,0,1,448,409.6H64a63.51,63.51,0,0,1-35.42-10.79A38.45,38.45,0,0,0,64,422.4H448A38.45,38.45,0,0,0,483.42,398.81ZM64,371.2a63.51,63.51,0,0,1-35.42-10.79A38.45,38.45,0,0,0,64,384H448a38.45,38.45,0,0,0,35.42-23.59A63.51,63.51,0,0,1,448,371.2Z"/><rect class="cls-3" x="153.6" y="64" width="204.8" height="384"/><path class="cls-1" d="M260.63,168.83c3.31,0,4.38,1.07,4.38,4.26v4.85c9.59,1.66,16.34,6.75,20.36,15.39,1.78,3.32.95,5.09-2.72,6.63l-8.17,3.67c-3.19,1.42-4.73.95-6.51-2.37-2.37-4.62-5.44-6.87-12-6.87-8.41,0-12,1.77-12,6.87,0,4.38,5,6,14.09,7a82.33,82.33,0,0,1,13.49,2.25,23,23,0,0,1,6.4,2.72c5.33,3.2,10.42,9.35,9.94,19.53,0,12.66-8.28,21.43-23,24.15V262c0,3.32-1.06,4.38-4.38,4.38h-9c-3.2,0-4.38-1.06-4.38-4.38v-4.85c-11.6-1.78-19.17-7.58-22.84-17.28q-1.6-4.62,3.19-6.39l8.05-2.84c3.43-1.3,5.09-.59,6.63,2.84,1.89,4.86,6.28,7.22,13,7.22,9,0,13.5-2.49,13.5-7.58,0-4.73-4.62-6.27-14-7.22-6.63-.83-10.06-1.18-16.1-3.55a20.61,20.61,0,0,1-7.34-4.14c-3.67-3.2-6.75-9.23-6.75-16.93,0-12.43,7.93-21,22.61-23.32v-4.85c0-3.2,1.19-4.26,4.38-4.26Z"/><g class="cls-4"><rect class="cls-5" x="153.6" y="345.6" width="204.8" height="102.4"/></g></svg>